<?xml version="1.0" encoding="UTF-8" standalone="no"?>
<!DOCTYPE svg PUBLIC "-//W3C//DTD SVG 1.1//EN"
 "http://www.w3.org/Graphics/SVG/1.1/DTD/svg11.dtd">
<!-- Generated by graphviz version 2.26.3 (20100126.1600)
 -->
<!-- Title: G Pages: 1 -->
<svg width="306pt" height="282pt"
 viewBox="0.00 0.00 306.00 282.00" xmlns="http://www.w3.org/2000/svg" xmlns:xlink="http://www.w3.org/1999/xlink">
<g id="graph1" class="graph" transform="scale(1 1) rotate(0) translate(4 278)">
<title>G</title>
<polygon fill="white" stroke="white" points="-4,5 -4,-278 303,-278 303,5 -4,5"/>
<g id="graph2" class="cluster"><title>cluster_Global</title>
<polyline fill="none" stroke="gray" points="184,-8 278,-8 "/>
<path fill="none" stroke="gray" d="M278,-8C284,-8 290,-14 290,-20"/>
<polyline fill="none" stroke="gray" points="290,-20 290,-254 "/>
<path fill="none" stroke="gray" d="M290,-254C290,-260 284,-266 278,-266"/>
<polyline fill="none" stroke="gray" points="278,-266 184,-266 "/>
<path fill="none" stroke="gray" d="M184,-266C178,-266 172,-260 172,-254"/>
<polyline fill="none" stroke="gray" points="172,-254 172,-20 "/>
<path fill="none" stroke="gray" d="M172,-20C172,-14 178,-8 184,-8"/>
<text text-anchor="middle" x="231" y="-252.1" font-family="Times Roman,serif" font-size="11.00" fill="gray">Global</text>
</g>
<g id="graph3" class="cluster"><title>cluster_\Chadicus</title>
<polyline fill="none" stroke="gray" points="192,-16 270,-16 "/>
<path fill="none" stroke="gray" d="M270,-16C276,-16 282,-22 282,-28"/>
<polyline fill="none" stroke="gray" points="282,-28 282,-224 "/>
<path fill="none" stroke="gray" d="M282,-224C282,-230 276,-236 270,-236"/>
<polyline fill="none" stroke="gray" points="270,-236 192,-236 "/>
<path fill="none" stroke="gray" d="M192,-236C186,-236 180,-230 180,-224"/>
<polyline fill="none" stroke="gray" points="180,-224 180,-28 "/>
<path fill="none" stroke="gray" d="M180,-28C180,-22 186,-16 192,-16"/>
<text text-anchor="middle" x="231" y="-222.1" font-family="Times Roman,serif" font-size="11.00" fill="gray">Chadicus</text>
</g>
<g id="graph4" class="cluster"><title>cluster_\Chadicus\Filter</title>
<polyline fill="none" stroke="gray" points="200,-24 262,-24 "/>
<path fill="none" stroke="gray" d="M262,-24C268,-24 274,-30 274,-36"/>
<polyline fill="none" stroke="gray" points="274,-36 274,-194 "/>
<path fill="none" stroke="gray" d="M274,-194C274,-200 268,-206 262,-206"/>
<polyline fill="none" stroke="gray" points="262,-206 200,-206 "/>
<path fill="none" stroke="gray" d="M200,-206C194,-206 188,-200 188,-194"/>
<polyline fill="none" stroke="gray" points="188,-194 188,-36 "/>
<path fill="none" stroke="gray" d="M188,-36C188,-30 194,-24 200,-24"/>
<text text-anchor="middle" x="231" y="-192.1" font-family="Times Roman,serif" font-size="11.00" fill="gray">Filter</text>
</g>
<!-- \\Chadicus\\Filter\\String -->
<g id="node4" class="node"><title>\\Chadicus\\Filter\\String</title>
<polygon fill="none" stroke="black" points="258,-176 204,-176 204,-140 258,-140 258,-176"/>
<text text-anchor="middle" x="231" y="-155.1" font-family="Times Roman,serif" font-size="11.00">String</text>
</g>
<!-- \\Chadicus\\Filter\\DateTime -->
<g id="node5" class="node"><title>\\Chadicus\\Filter\\DateTime</title>
<polygon fill="none" stroke="black" points="265,-122 197,-122 197,-86 265,-86 265,-122"/>
<text text-anchor="middle" x="231" y="-101.1" font-family="Times Roman,serif" font-size="11.00">DateTime</text>
</g>
<!-- \\Chadicus\\Filter\\Exception -->
<g id="node6" class="node"><title>\\Chadicus\\Filter\\Exception</title>
<polygon fill="none" stroke="black" points="266,-68 196,-68 196,-32 266,-32 266,-68"/>
<text text-anchor="middle" x="231" y="-47.1" font-family="Times Roman,serif" font-size="11.00">Exception</text>
</g>
<!-- \\Exception -->
<g id="node8" class="node"><title>\\Exception</title>
<ellipse fill="none" stroke="black" cx="62" cy="-50" rx="62.2254" ry="18.3848"/>
<text text-anchor="middle" x="62" y="-46.4" font-family="Times Roman,serif" font-size="14.00" fill="gray">\Exception</text>
</g>
<!-- \\Chadicus\\Filter\\Exception&#45;&gt;\\Exception -->
<g id="edge5" class="edge"><title>\\Chadicus\\Filter\\Exception&#45;&gt;\\Exception</title>
<path fill="none" stroke="black" d="M195.983,-50C178.122,-50 155.706,-50 134.349,-50"/>
<polygon fill="none" stroke="black" points="134.303,-46.5001 124.303,-50 134.303,-53.5001 134.303,-46.5001"/>
</g>
</g>
</svg>
